<svg width="505" height="142" viewBox="0 0 505 142" fill="none" xmlns="http://www.w3.org/2000/svg">
<path d="M147.289 83.0469V61.3203L140.703 55.3906H163.438L159.406 61.3203V71.4219L172.648 61.3438L169.062 55.3906H188.984L172.227 68.5391L183.008 83.0469L189.453 89H168.312L170.328 85.7656L163.227 75.5938L159.406 78.6172V83.0469L164.375 89H140.703L147.289 83.0469ZM190.484 82.9531C190.484 81.7031 190.742 80.625 191.258 79.7188C191.773 78.7969 192.469 78.0156 193.344 77.375C194.219 76.7188 195.242 76.1875 196.414 75.7812C197.586 75.375 198.828 75.0625 200.141 74.8438C201.453 74.6094 202.797 74.4531 204.172 74.375C205.562 74.2812 206.914 74.2344 208.227 74.2344C208.961 74.2344 209.734 74.25 210.547 74.2812C211.375 74.2969 212.203 74.3203 213.031 74.3516C213 73.2266 212.898 72.2266 212.727 71.3516C212.57 70.4609 212.297 69.7188 211.906 69.125C211.531 68.5156 211 68.0547 210.312 67.7422C209.641 67.4141 208.773 67.25 207.711 67.25C207.023 67.25 206.344 67.3359 205.672 67.5078C205 67.6797 204.391 67.9531 203.844 68.3281C203.297 68.7031 202.828 69.1875 202.438 69.7812C202.062 70.3594 201.82 71.0703 201.711 71.9141L192.312 70.625C192.312 69.5625 192.523 68.6172 192.945 67.7891C193.383 66.9453 193.977 66.2109 194.727 65.5859C195.477 64.9453 196.359 64.4062 197.375 63.9688C198.406 63.5312 199.508 63.1797 200.68 62.9141C201.867 62.6484 203.102 62.4531 204.383 62.3281C205.68 62.2031 206.969 62.1406 208.25 62.1406C209.797 62.1406 211.273 62.2109 212.68 62.3516C214.102 62.4766 215.422 62.7109 216.641 63.0547C217.859 63.3984 218.961 63.8594 219.945 64.4375C220.945 65.0156 221.797 65.75 222.5 66.6406C223.203 67.5312 223.742 68.5938 224.117 69.8281C224.508 71.0625 224.703 72.5 224.703 74.1406V82.3906C224.703 83.6406 225.008 84.5156 225.617 85.0156C226.242 85.5156 227.086 85.7656 228.148 85.7656V88.4609C228.008 88.6016 227.766 88.7578 227.422 88.9297C227.094 89.0859 226.656 89.2344 226.109 89.375C225.578 89.5312 224.945 89.6562 224.211 89.75C223.477 89.8594 222.633 89.9141 221.68 89.9141C220.523 89.9141 219.484 89.8516 218.562 89.7266C217.641 89.6172 216.836 89.4141 216.148 89.1172C215.477 88.8359 214.914 88.4453 214.461 87.9453C214.008 87.4453 213.664 86.8125 213.43 86.0469C212.648 86.7344 211.766 87.3203 210.781 87.8047C209.797 88.2891 208.75 88.6875 207.641 89C206.547 89.3125 205.414 89.5391 204.242 89.6797C203.086 89.8359 201.945 89.9141 200.82 89.9141C200.07 89.9141 199.297 89.875 198.5 89.7969C197.703 89.7188 196.922 89.5781 196.156 89.375C195.391 89.1875 194.664 88.9297 193.977 88.6016C193.289 88.2578 192.688 87.8281 192.172 87.3125C191.656 86.7969 191.242 86.1797 190.93 85.4609C190.633 84.7422 190.484 83.9062 190.484 82.9531ZM202.602 81.9219C202.602 82.3438 202.711 82.7266 202.93 83.0703C203.148 83.4141 203.445 83.7031 203.82 83.9375C204.195 84.1719 204.633 84.3516 205.133 84.4766C205.633 84.6016 206.164 84.6641 206.727 84.6641C207.305 84.6641 207.945 84.6016 208.648 84.4766C209.352 84.3359 210.016 84.1094 210.641 83.7969C211.281 83.4844 211.828 83.0781 212.281 82.5781C212.734 82.0625 212.992 81.4375 213.055 80.7031V78.3125C212.836 78.2969 212.625 78.2891 212.422 78.2891C212.234 78.2891 212.055 78.2891 211.883 78.2891C210.211 78.2891 208.789 78.375 207.617 78.5469C206.445 78.7031 205.484 78.9375 204.734 79.25C204 79.5625 203.461 79.9453 203.117 80.3984C202.773 80.8516 202.602 81.3594 202.602 81.9219ZM233.82 79.4375C235.008 80.2188 236.281 80.9453 237.641 81.6172C239.016 82.2734 240.438 82.8516 241.906 83.3516C243.375 83.8359 244.875 84.2188 246.406 84.5C247.938 84.7812 249.469 84.9219 251 84.9219C251.578 84.9219 252.148 84.8828 252.711 84.8047C253.289 84.7266 253.797 84.6094 254.234 84.4531C254.688 84.2812 255.047 84.0625 255.312 83.7969C255.594 83.5156 255.734 83.1797 255.734 82.7891C255.734 82.4609 255.625 82.1719 255.406 81.9219C255.203 81.6562 254.805 81.4141 254.211 81.1953C253.617 80.9766 252.781 80.7812 251.703 80.6094C250.641 80.4375 249.25 80.2812 247.531 80.1406C246.375 80.0469 245.211 79.9297 244.039 79.7891C242.867 79.6328 241.734 79.4219 240.641 79.1562C239.562 78.8906 238.547 78.5469 237.594 78.125C236.656 77.7031 235.836 77.1875 235.133 76.5781C234.445 75.9531 233.898 75.2109 233.492 74.3516C233.086 73.4922 232.883 72.4844 232.883 71.3281C232.883 69.8281 233.242 68.5078 233.961 67.3672C234.68 66.2266 235.648 65.2734 236.867 64.5078C238.102 63.7266 239.531 63.1406 241.156 62.75C242.781 62.3438 244.5 62.1406 246.312 62.1406C248.266 62.1406 250.195 62.375 252.102 62.8438C254.023 63.2969 255.922 63.9531 257.797 64.8125L263.938 62.2812V71.5625C262.641 70.7969 261.297 70.125 259.906 69.5469C258.531 68.9531 257.156 68.4609 255.781 68.0703C254.422 67.6797 253.086 67.3906 251.773 67.2031C250.477 67 249.266 66.8984 248.141 66.8984C247.391 66.8984 246.711 66.9531 246.102 67.0625C245.492 67.1719 244.961 67.3203 244.508 67.5078C244.07 67.6953 243.727 67.9141 243.477 68.1641C243.242 68.4141 243.125 68.6797 243.125 68.9609C243.125 69.2422 243.227 69.4922 243.43 69.7109C243.648 69.9297 244.07 70.1406 244.695 70.3438C245.336 70.5312 246.234 70.7188 247.391 70.9062C248.562 71.0781 250.094 71.2578 251.984 71.4453C253.844 71.6328 255.625 71.9141 257.328 72.2891C259.047 72.6484 260.562 73.1641 261.875 73.8359C263.188 74.4922 264.234 75.3516 265.016 76.4141C265.797 77.4609 266.188 78.7734 266.188 80.3516C266.188 81.4922 265.977 82.5234 265.555 83.4453C265.148 84.3672 264.594 85.1797 263.891 85.8828C263.188 86.5859 262.367 87.1953 261.43 87.7109C260.492 88.2109 259.492 88.625 258.43 88.9531C257.383 89.2812 256.305 89.5234 255.195 89.6797C254.086 89.8359 253.008 89.9141 251.961 89.9141C249.898 89.9141 247.859 89.6562 245.844 89.1406C243.828 88.625 241.867 87.8672 239.961 86.8672L233.82 89.6094V79.4375ZM274.555 69.4766L268.203 63.7578L285.734 63.0547V76.25C285.734 77.25 285.828 78.1953 286.016 79.0859C286.203 79.9766 286.492 80.7578 286.883 81.4297C287.289 82.1016 287.805 82.6328 288.43 83.0234C289.055 83.4141 289.805 83.6094 290.68 83.6094C291.555 83.6094 292.359 83.4219 293.094 83.0469C293.828 82.6719 294.453 82.125 294.969 81.4062C295.5 80.6719 295.914 79.7734 296.211 78.7109C296.508 77.6484 296.656 76.4375 296.656 75.0781V69.4766L290.469 63.7578L307.836 63.0547V83.4453L313.977 88.6953L296.656 89.3984V84.1953C295.484 86.0391 293.977 87.4531 292.133 88.4375C290.305 89.4219 288.227 89.9141 285.898 89.9141C282.258 89.9141 279.453 88.8125 277.484 86.6094C275.531 84.3906 274.555 81.1016 274.555 76.7422V69.4766ZM319.062 69.0547L312.453 63.0547H333.523L330.781 66.9453L336.406 84.0078L341.07 67.1094L338.234 63.0547H357.195L354.453 66.9453L360.078 84.0078L364.742 67.1094L361.906 63.0547H378.758L373.133 68.5156L365.656 89H351.383L346.461 76.7188L341.984 89H327.711L319.062 69.0547ZM380.516 82.9531C380.516 81.7031 380.773 80.625 381.289 79.7188C381.805 78.7969 382.5 78.0156 383.375 77.375C384.25 76.7188 385.273 76.1875 386.445 75.7812C387.617 75.375 388.859 75.0625 390.172 74.8438C391.484 74.6094 392.828 74.4531 394.203 74.375C395.594 74.2812 396.945 74.2344 398.258 74.2344C398.992 74.2344 399.766 74.25 400.578 74.2812C401.406 74.2969 402.234 74.3203 403.062 74.3516C403.031 73.2266 402.93 72.2266 402.758 71.3516C402.602 70.4609 402.328 69.7188 401.938 69.125C401.562 68.5156 401.031 68.0547 400.344 67.7422C399.672 67.4141 398.805 67.25 397.742 67.25C397.055 67.25 396.375 67.3359 395.703 67.5078C395.031 67.6797 394.422 67.9531 393.875 68.3281C393.328 68.7031 392.859 69.1875 392.469 69.7812C392.094 70.3594 391.852 71.0703 391.742 71.9141L382.344 70.625C382.344 69.5625 382.555 68.6172 382.977 67.7891C383.414 66.9453 384.008 66.2109 384.758 65.5859C385.508 64.9453 386.391 64.4062 387.406 63.9688C388.438 63.5312 389.539 63.1797 390.711 62.9141C391.898 62.6484 393.133 62.4531 394.414 62.3281C395.711 62.2031 397 62.1406 398.281 62.1406C399.828 62.1406 401.305 62.2109 402.711 62.3516C404.133 62.4766 405.453 62.7109 406.672 63.0547C407.891 63.3984 408.992 63.8594 409.977 64.4375C410.977 65.0156 411.828 65.75 412.531 66.6406C413.234 67.5312 413.773 68.5938 414.148 69.8281C414.539 71.0625 414.734 72.5 414.734 74.1406V82.3906C414.734 83.6406 415.039 84.5156 415.648 85.0156C416.273 85.5156 417.117 85.7656 418.18 85.7656V88.4609C418.039 88.6016 417.797 88.7578 417.453 88.9297C417.125 89.0859 416.688 89.2344 416.141 89.375C415.609 89.5312 414.977 89.6562 414.242 89.75C413.508 89.8594 412.664 89.9141 411.711 89.9141C410.555 89.9141 409.516 89.8516 408.594 89.7266C407.672 89.6172 406.867 89.4141 406.18 89.1172C405.508 88.8359 404.945 88.4453 404.492 87.9453C404.039 87.4453 403.695 86.8125 403.461 86.0469C402.68 86.7344 401.797 87.3203 400.812 87.8047C399.828 88.2891 398.781 88.6875 397.672 89C396.578 89.3125 395.445 89.5391 394.273 89.6797C393.117 89.8359 391.977 89.9141 390.852 89.9141C390.102 89.9141 389.328 89.875 388.531 89.7969C387.734 89.7188 386.953 89.5781 386.188 89.375C385.422 89.1875 384.695 88.9297 384.008 88.6016C383.32 88.2578 382.719 87.8281 382.203 87.3125C381.688 86.7969 381.273 86.1797 380.961 85.4609C380.664 84.7422 380.516 83.9062 380.516 82.9531ZM392.633 81.9219C392.633 82.3438 392.742 82.7266 392.961 83.0703C393.18 83.4141 393.477 83.7031 393.852 83.9375C394.227 84.1719 394.664 84.3516 395.164 84.4766C395.664 84.6016 396.195 84.6641 396.758 84.6641C397.336 84.6641 397.977 84.6016 398.68 84.4766C399.383 84.3359 400.047 84.1094 400.672 83.7969C401.312 83.4844 401.859 83.0781 402.312 82.5781C402.766 82.0625 403.023 81.4375 403.086 80.7031V78.3125C402.867 78.2969 402.656 78.2891 402.453 78.2891C402.266 78.2891 402.086 78.2891 401.914 78.2891C400.242 78.2891 398.82 78.375 397.648 78.5469C396.477 78.7031 395.516 78.9375 394.766 79.25C394.031 79.5625 393.492 79.9453 393.148 80.3984C392.805 80.8516 392.633 81.3594 392.633 81.9219ZM423.008 69.0547H446.633V74.7266H423.008V69.0547ZM459.922 81.4531L467.586 72.7344L459.172 62.0469L450.312 55.3906H473.938L471.688 58.5781L477.078 65.8906L482 59.5625L477.711 55.3906H498.688L488.562 62.7734L481.508 71.1406L490.273 82.2969L499.227 89H475.648L477.875 85.8125L471.898 77.9609L466.461 84.8281L470.727 89H449.75L459.922 81.4531Z" fill="black"/>
<ellipse cx="69" cy="71" rx="69" ry="71" fill="#A42E4B"/>
<g clip-path="url(#clip0_223_2)">
<path d="M43.28 100.4C40.2314 100.4 37.76 97.8928 37.76 94.8C37.76 91.7072 40.2314 89.2 43.28 89.2C46.3286 89.2 48.8 91.7072 48.8 94.8C48.8 97.8928 46.3286 100.4 43.28 100.4Z" fill="black"/>
<path d="M83.3 100.4C80.2514 100.4 77.78 97.8928 77.78 94.8C77.78 91.7072 80.2514 89.2 83.3 89.2C86.3486 89.2 88.82 91.7072 88.82 94.8C88.82 97.8928 86.3486 100.4 83.3 100.4Z" fill="black"/>
<path d="M39.14 82.2H82.236L81.3156 80.6852C80.9209 80.0356 80.805 79.2502 80.994 78.511L81.8924 75.0026L41.8959 72.8942C40.3792 72.8158 39.14 71.49 39.14 69.95V51.4C39.14 49.86 40.382 48.6 41.9 48.6H88.6558L89.1954 46.4958C89.3491 45.8957 89.6948 45.3643 90.1783 44.985C90.6619 44.6056 91.2558 44.3999 91.867 44.4H101.24C101.972 44.4 102.674 44.695 103.192 45.2201C103.709 45.7452 104 46.4574 104 47.2C104 47.9426 103.709 48.6548 103.192 49.1799C102.674 49.705 101.972 50 101.24 50H94.0005L86.6313 78.763L89.5293 83.53C89.7871 83.9541 89.9285 84.4404 89.9389 84.9386C89.9494 85.4368 89.8284 85.9287 89.5887 86.3636C89.3499 86.799 89.0007 87.1617 88.5773 87.4143C88.1539 87.6668 87.6717 87.8 87.1806 87.8H39.14C38.408 87.8 37.706 87.505 37.1884 86.9799C36.6708 86.4548 36.38 85.7426 36.38 85C36.38 84.2574 36.6708 83.5452 37.1884 83.0201C37.706 82.495 38.408 82.2 39.14 82.2Z" fill="#A6ABBD"/>
</g>
<defs>
<clipPath id="clip0_223_2">
<rect width="69" height="70" fill="white" transform="matrix(-1 0 0 1 104 36)"/>
</clipPath>
</defs>
</svg>
